# xmcd
# 
# Track frame offsets:
#   150
#   20934
#   38887
#   56655
#   76782
#   98310
#   119007
#   136292
#   150787
#   169794
#   186663
#   205768
#   222208
#   241219
#   262128
# 
# Disc length: 3719 seconds
# 
# Revision: 1
# Processed by: cddbd v1.5.1PL2 Copyright (c) Steve Scherf et al.
# Submitted via: VOLTOCDX V1.0.24 
# 
DISCID=cd0e850f
DTITLE=My Artist - My Title
DYEAR=2005
DGENRE=Description of the extended genre
TTITLE0=ridin spinners ft. lil flip
TTITLE1=
TTITLE2=
TTITLE3=Do Ya Thing
TTITLE4=
TTITLE5=Oh I Think Dey Like Me
TTITLE6=
TTITLE7=Flossin' (Feat. Big Moe)
TTITLE8=I'm A Pimp (f. Lil' Keke and Mik
TTITLE9=They Don&apos;t Know (Ft.Mike
TTITLE10=Game Over
TTITLE11=
TTITLE12=
TTITLE13=Neva Eva
TTITLE14=Sunshine (feat. Anthony Hamilt
EXTD=Extended CD description
EXTT0=
EXTT1=
EXTT2=
EXTT3=
EXTT4=
EXTT5=
EXTT6=
EXTT7=
EXTT8=
EXTT9=
EXTT10=
EXTT11=
EXTT12=
EXTT13=
EXTT14=
PLAYORDER=
